<?xml version="1.0" standalone="no"?>
<!DOCTYPE svg PUBLIC "-//W3C//DTD SVG 20010904//EN"
 "http://www.w3.org/TR/2001/REC-SVG-20010904/DTD/svg10.dtd">
<svg version="1.0" xmlns="http://www.w3.org/2000/svg"
 width="498.000000pt" height="526.000000pt" viewBox="0 0 498.000000 526.000000"
 preserveAspectRatio="xMidYMid meet">
<metadata>
Created by potrace 1.16, written by Peter Selinger 2001-2019
</metadata>
<g transform="translate(0.000000,526.000000) scale(0.100000,-0.100000)"
fill="#000000" stroke="none">
<path d="M1150 5250 c0 -8 -58 -51 -129 -95 -28 -17 -86 -59 -97 -70 -6 -6
-37 -26 -68 -45 -31 -19 -56 -38 -56 -42 0 -4 -6 -8 -14 -8 -8 0 -16 -3 -18
-7 -2 -5 -21 -17 -43 -28 -22 -11 -51 -31 -65 -45 -22 -22 -25 -32 -22 -87 3
-57 6 -63 31 -74 l28 -13 -1 -155 c-1 -244 11 -421 30 -442 22 -24 48 -14 33
13 -6 11 -8 34 -5 52 5 25 15 368 16 544 l0 43 48 -5 c26 -3 73 -8 104 -11
100 -11 98 -4 98 -286 0 -156 6 -284 15 -353 8 -60 12 -120 9 -132 -3 -12 -1
-25 5 -29 6 -3 8 -11 5 -17 -4 -6 0 -14 7 -19 10 -6 7 -9 -12 -9 -28 0 -66 37
-93 88 -8 16 -31 39 -51 51 -42 25 -45 25 -45 8 0 -9 -27 -11 -115 -9 -95 4
-117 1 -130 -12 -9 -9 -23 -16 -31 -16 -8 0 -14 -3 -14 -8 0 -4 -15 -14 -32
-21 -38 -17 -57 -38 -58 -63 0 -14 -8 -18 -34 -18 -18 0 -38 -6 -44 -12 -23
-29 -62 -108 -62 -127 0 -36 106 -131 146 -131 8 0 14 -11 14 -26 0 -27 29
-84 42 -84 4 0 8 -5 8 -11 0 -6 6 -16 13 -23 6 -7 30 -35 52 -61 22 -27 46
-54 53 -61 6 -7 12 -19 12 -26 0 -19 21 -38 42 -38 18 0 34 11 90 63 39 35 48
34 48 -7 0 -18 7 -39 15 -46 20 -16 20 -88 0 -163 -8 -32 -15 -67 -15 -77 0
-11 -6 -20 -13 -20 -7 0 -41 -31 -76 -70 l-64 -70 -58 0 c-32 0 -61 5 -65 11
-4 7 -21 9 -45 5 -22 -3 -39 -2 -39 2 0 5 -11 14 -24 20 -26 11 -48 71 -61
165 -4 26 -11 50 -16 53 -5 3 -9 14 -9 25 0 42 -71 125 -98 114 -16 -6 -15 -8
3 -23 45 -38 77 -118 95 -241 9 -59 5 -81 -16 -81 -8 0 -35 -21 -60 -46 -34
-35 -44 -52 -40 -68 3 -12 -1 -34 -9 -50 -20 -38 -20 -122 0 -130 12 -4 15 3
15 34 0 44 21 120 32 120 5 0 8 5 8 12 0 19 44 78 58 78 6 0 12 5 12 10 0 14
26 12 38 -3 8 -9 1 -32 -26 -85 -30 -62 -34 -76 -24 -92 7 -11 12 -36 12 -55
0 -24 8 -45 25 -62 l24 -27 10 25 c5 13 10 18 10 12 1 -15 41 -18 41 -3 0 6
-4 10 -10 10 -5 0 -10 6 -10 13 0 9 15 14 46 15 25 1 54 7 64 12 10 6 29 10
42 10 13 0 34 9 48 20 34 27 87 27 95 -1 6 -19 0 -31 -43 -77 -17 -18 -6 -32
24 -32 44 0 64 -17 64 -55 0 -18 5 -37 10 -40 6 -3 10 -16 10 -27 0 -32 22
-88 35 -88 7 0 17 12 24 28 8 15 17 35 22 44 5 10 9 25 9 33 0 8 5 15 10 15 6
0 10 16 10 35 0 24 5 35 14 35 10 0 17 -17 21 -57 9 -75 22 -153 30 -178 6
-20 2 -21 -67 -21 -40 0 -109 -6 -153 -13 -107 -18 -283 -3 -347 30 -10 5 -27
9 -38 9 -11 0 -20 5 -20 10 0 6 -17 10 -37 10 -26 0 -47 8 -67 25 -16 14 -34
25 -41 25 -6 0 -22 12 -34 26 -21 24 -22 33 -17 98 13 150 18 186 27 186 5 0
9 7 9 15 0 8 -3 15 -8 15 -22 0 -31 67 -33 235 -1 99 -3 201 -3 227 -1 35 5
52 22 70 12 14 22 28 22 32 0 4 11 19 25 34 14 15 25 32 25 39 0 6 16 28 35
49 25 27 32 40 23 45 -6 4 -19 4 -28 -1 -15 -8 -100 -124 -100 -135 0 -3 -12
-19 -28 -36 -17 -19 -29 -46 -32 -72 -4 -34 4 -374 11 -512 3 -50 -23 -249
-34 -263 -8 -10 -2 -21 24 -43 19 -17 46 -37 60 -46 18 -11 29 -30 38 -67 13
-54 48 -132 68 -154 7 -7 13 -16 13 -20 0 -4 13 -20 28 -37 25 -27 28 -38 30
-110 8 -294 11 -374 21 -484 12 -127 25 -159 57 -147 11 4 14 12 9 24 -4 9
-11 53 -15 97 -7 66 -6 82 7 92 19 15 14 98 -23 381 -6 49 -5 52 15 52 33 0
26 22 -37 112 -17 26 -32 49 -32 53 0 4 -6 12 -12 19 -7 7 -22 25 -33 40 -11
16 -26 34 -33 41 -20 22 -15 37 10 30 13 -4 27 -11 33 -16 5 -5 20 -9 33 -9
13 0 36 -8 50 -19 46 -32 182 -52 208 -30 8 6 31 13 52 15 70 7 112 16 118 25
3 5 49 9 102 9 l98 0 14 -48 c9 -29 15 -91 15 -160 0 -87 3 -115 14 -122 12
-7 13 -17 2 -67 -7 -32 -18 -69 -23 -83 -10 -24 -22 -91 -35 -187 -3 -30 -1
-47 10 -57 9 -9 17 -46 22 -93 4 -43 14 -98 22 -123 9 -24 16 -68 17 -96 2
-62 35 -114 72 -114 26 0 31 21 15 62 -5 13 -15 50 -22 83 -7 33 -15 65 -19
70 -15 23 -50 236 -50 306 0 40 7 88 33 222 10 51 13 56 32 51 11 -4 22 -11
23 -15 2 -5 12 -9 23 -9 12 0 19 -7 19 -20 0 -11 4 -20 10 -20 5 0 19 -30 31
-67 17 -53 23 -99 26 -208 2 -77 8 -156 13 -175 6 -19 10 -49 10 -66 0 -51 19
-94 42 -94 20 0 20 4 16 93 -3 51 -11 103 -17 116 -8 14 -12 61 -11 129 2 110
-6 172 -21 172 -5 0 -9 9 -9 19 0 11 -4 23 -10 26 -5 3 -10 14 -10 24 0 10 -7
24 -15 31 -30 25 -14 28 46 9 33 -10 71 -19 83 -19 27 0 52 -25 61 -63 4 -15
11 -27 16 -27 5 0 9 -13 9 -29 0 -16 4 -31 9 -33 10 -3 22 -114 36 -338 10
-166 14 -200 25 -220 23 -43 47 -16 29 34 -9 25 -10 50 -2 97 6 38 7 71 2 81
-5 9 -10 74 -10 143 -1 69 -5 128 -9 130 -4 3 -11 22 -15 42 -4 21 -15 55 -26
77 -10 22 -19 44 -19 49 0 4 -7 15 -15 24 -26 25 -7 33 86 33 l89 0 0 -65 c0
-58 2 -65 20 -65 11 0 20 6 20 14 0 50 -23 223 -31 231 -5 5 -9 22 -9 37 0 15
-4 28 -8 28 -5 0 -15 18 -22 40 -7 22 -19 45 -27 51 -20 17 -17 -2 12 -67 14
-31 25 -69 25 -85 0 -15 5 -31 10 -34 6 -3 10 -13 10 -21 0 -11 -22 -14 -120
-14 -119 0 -120 0 -126 25 -8 32 -24 32 -24 0 0 -23 -4 -25 -45 -25 -25 0 -45
5 -45 10 0 6 -6 10 -14 10 -15 0 -52 69 -61 113 -9 46 -39 31 -45 -22 -3 -25
-10 -46 -17 -48 -6 -2 -26 9 -43 24 -30 27 -31 31 -22 64 5 21 6 54 1 80 -4
24 -13 71 -19 104 -6 32 -13 61 -15 64 -3 2 2 12 11 22 15 16 15 27 5 96 -14
87 -18 505 -7 628 8 82 45 225 58 225 5 0 8 8 8 18 0 21 52 132 71 152 27 28
69 96 69 111 0 8 9 21 20 29 11 8 20 18 20 22 0 4 -9 8 -20 8 -25 0 -25 5 2
48 15 25 18 37 10 40 -7 2 -12 11 -12 21 0 9 -5 22 -11 28 -23 23 31 86 101
120 19 9 42 25 51 35 9 10 19 18 23 18 3 0 28 16 55 35 26 19 56 35 65 35 10
0 26 5 37 10 13 7 19 7 19 0 0 -14 53 -13 69 3 8 7 39 12 87 11 78 -1 82 -3
124 -63 11 -16 22 -20 40 -16 19 4 33 -2 57 -25 18 -16 38 -30 45 -30 7 0 27
-12 43 -26 111 -95 114 -99 115 -131 0 -50 -40 -66 -140 -57 -73 6 -79 5 -92
-15 -7 -11 -17 -21 -22 -21 -16 0 -56 -55 -56 -78 0 -25 -15 -44 -43 -55 -17
-7 -34 -34 -25 -42 3 -3 28 6 56 20 41 20 60 23 97 18 39 -5 45 -9 45 -30 0
-49 -58 -72 -82 -33 -7 11 -16 20 -20 20 -5 0 -8 -9 -8 -20 0 -11 -6 -20 -14
-20 -8 0 -22 -10 -30 -22 -9 -12 -17 -20 -19 -17 -2 2 -18 25 -36 52 -18 26
-37 47 -42 47 -6 0 -25 11 -43 25 -18 14 -39 25 -46 25 -7 0 -35 16 -61 35
-27 19 -54 35 -59 35 -6 0 -10 5 -10 10 0 6 -7 10 -15 10 -8 0 -15 4 -15 9 0
4 -24 16 -53 25 -29 9 -68 26 -86 37 -45 27 -68 10 -31 -24 32 -28 107 -67
130 -67 11 0 21 -4 25 -9 3 -5 19 -12 35 -16 17 -4 30 -10 30 -14 0 -4 16 -13
35 -21 19 -8 35 -17 35 -21 0 -4 19 -14 42 -24 24 -9 45 -20 48 -24 3 -4 20
-17 38 -30 31 -22 32 -25 32 -92 0 -38 -4 -69 -8 -69 -23 0 -75 35 -129 88
-34 31 -80 74 -104 94 -24 20 -57 48 -73 62 -17 14 -53 37 -80 52 -28 15 -57
36 -64 46 -15 21 -32 15 -32 -10 0 -19 51 -69 93 -91 20 -11 24 -18 16 -27 -7
-9 -4 -18 12 -33 13 -12 29 -21 36 -21 7 0 13 -3 13 -8 0 -4 16 -16 35 -26 19
-10 37 -27 40 -37 3 -9 19 -32 35 -51 28 -32 42 -56 62 -108 20 -51 25 -55 67
-58 36 -3 41 -6 41 -28 0 -18 5 -24 21 -24 19 0 21 4 15 32 -9 44 -25 59 -59
56 -27 -3 -30 1 -53 62 -13 36 -24 68 -24 72 0 8 35 -20 76 -59 13 -13 27 -23
31 -23 12 0 73 -56 73 -67 0 -6 9 -18 20 -28 11 -10 22 -33 26 -51 3 -19 10
-34 15 -34 5 0 9 -4 9 -10 0 -11 27 -44 83 -102 20 -21 37 -45 37 -53 0 -8 4
-15 9 -15 13 0 71 -56 71 -69 0 -15 51 -120 61 -127 5 -3 5 -14 -1 -24 -7 -13
-7 -21 0 -25 5 -3 10 -18 10 -32 0 -15 4 -40 9 -57 17 -54 51 -229 58 -296 8
-72 8 -77 5 -206 -2 -88 -3 -91 -29 -103 -16 -8 -36 -18 -46 -23 -25 -12 -27
-9 -43 59 -16 67 -18 193 -5 240 13 44 -9 50 -50 13 -19 -16 -36 -27 -40 -24
-4 2 -18 28 -33 58 -21 43 -34 57 -60 66 -20 6 -39 22 -49 43 -10 17 -28 47
-42 65 -18 25 -22 41 -18 67 4 23 2 35 -6 35 -6 0 -11 9 -11 20 0 11 -4 20 -9
20 -5 0 -13 10 -17 23 -3 12 -12 29 -19 37 -7 8 -15 28 -19 44 -4 15 -14 35
-21 43 -11 10 -13 26 -9 53 4 23 -1 65 -11 106 -10 38 -17 89 -17 113 0 67
-25 121 -64 137 -43 18 -75 18 -100 -1 -17 -13 -17 -14 -1 -15 9 0 17 -3 17
-8 0 -4 18 -7 41 -7 53 0 75 -27 85 -101 9 -74 -4 -192 -24 -227 -15 -24 -15
-29 -2 -37 10 -6 15 -27 15 -66 0 -38 4 -59 13 -62 7 -2 16 5 19 17 6 24 19
27 36 9 14 -15 57 -135 57 -159 0 -9 16 -33 35 -53 41 -44 41 -46 15 -72 -31
-31 -43 -39 -77 -54 -18 -8 -33 -18 -33 -22 0 -5 -7 -8 -16 -8 -8 0 -22 -7
-30 -15 -14 -13 -14 -16 0 -21 9 -3 16 -12 16 -20 0 -9 11 -14 29 -14 30 0 50
-28 36 -50 -8 -13 -35 -13 -35 0 0 6 -4 10 -10 10 -17 0 -60 43 -60 59 0 9
-15 23 -32 31 -23 11 -41 34 -67 87 -40 81 -72 103 -44 31 9 -24 20 -47 25
-52 4 -6 8 -17 8 -26 0 -22 45 -64 59 -55 18 10 13 -7 -6 -20 -15 -11 -15 -15
3 -58 10 -26 22 -47 27 -47 4 0 7 -13 7 -29 0 -17 4 -32 9 -35 5 -4 12 -25 16
-49 4 -23 11 -47 16 -53 6 -7 12 -27 15 -45 14 -83 15 -110 5 -123 -18 -22 -2
-46 30 -46 16 0 29 4 29 9 0 5 24 11 53 14 28 3 64 9 79 13 27 6 28 5 22 -27
-7 -42 -12 -56 -59 -148 -35 -68 -37 -78 -30 -130 4 -31 7 -66 6 -78 -3 -58
-2 -72 8 -123 5 -30 12 -75 14 -100 6 -60 15 -80 38 -80 21 0 26 29 9 58 -14
24 -40 292 -30 317 4 11 10 41 14 68 4 26 11 47 17 47 5 0 9 17 9 38 0 21 4
42 8 47 4 6 14 28 21 50 23 69 33 75 133 75 l89 0 -3 53 -3 52 67 0 67 0 3 30
c2 22 9 31 26 33 12 2 22 -1 22 -7 0 -6 9 -11 20 -11 11 0 20 -4 20 -10 0 -5
13 -10 30 -10 16 0 46 -9 67 -21 20 -11 61 -23 90 -26 30 -3 56 -10 59 -14 3
-5 25 -9 50 -9 24 0 52 -4 62 -9 24 -13 153 -51 197 -58 19 -3 35 -10 35 -14
0 -5 22 -9 49 -9 28 0 53 -4 56 -10 3 -5 22 -10 41 -10 19 0 34 -4 34 -10 0
-5 15 -10 33 -10 17 -1 43 -7 57 -15 14 -8 35 -14 47 -15 12 0 38 -9 57 -19
25 -14 37 -16 45 -8 8 8 11 8 11 -1 0 -7 9 -12 20 -12 11 0 20 -4 20 -10 0 -5
9 -10 20 -10 11 0 53 -16 92 -35 70 -34 87 -34 88 0 0 5 5 4 12 -3 7 -7 22
-12 35 -12 13 0 23 -4 23 -10 0 -5 7 -10 15 -10 8 0 30 -9 50 -20 20 -11 42
-20 50 -20 8 0 24 -11 36 -24 11 -13 28 -22 37 -19 9 2 68 -14 131 -37 63 -22
127 -40 142 -40 16 0 45 -9 66 -21 26 -14 47 -19 70 -16 18 3 33 2 33 -2 0
-14 84 -55 88 -43 2 7 20 12 40 12 l37 1 -40 14 c-22 8 -47 15 -56 15 -9 0
-30 7 -45 15 -16 8 -39 15 -50 15 -12 0 -27 7 -34 15 -7 8 -22 15 -33 15 -25
0 -82 17 -120 36 -16 8 -35 14 -43 14 -8 0 -14 3 -14 8 0 9 -49 32 -68 32 -8
0 -28 6 -45 14 -18 8 -47 17 -64 20 -73 13 -93 19 -93 25 0 4 -21 12 -47 20
-27 7 -69 19 -95 27 -26 8 -54 14 -63 14 -8 0 -23 4 -33 9 -51 26 -127 51
-154 51 -10 0 -48 14 -83 30 -44 21 -73 28 -90 24 -15 -4 -25 -2 -25 5 0 6 -7
11 -15 11 -8 0 -23 4 -33 9 -20 11 -112 30 -165 35 -21 2 -44 9 -50 15 -6 6
-23 11 -38 11 -15 0 -31 4 -34 10 -3 5 -16 10 -29 10 -12 0 -26 4 -32 9 -5 5
-31 14 -59 19 -77 16 -188 43 -210 52 -11 5 -58 21 -105 35 -47 15 -89 31 -94
36 -6 5 -20 9 -33 9 -13 0 -23 5 -23 10 0 6 7 10 15 10 8 0 18 12 21 26 8 29
18 29 124 -2 61 -18 119 -32 165 -41 17 -3 32 -9 35 -12 7 -9 95 -37 163 -52
31 -8 57 -17 57 -21 0 -5 20 -8 44 -8 25 0 48 -4 51 -10 3 -5 17 -10 31 -10
29 0 123 -28 142 -43 8 -6 12 -6 12 2 0 14 37 15 45 1 3 -6 17 -10 30 -10 13
0 27 -4 30 -10 3 -5 16 -10 29 -10 12 0 26 -4 32 -8 5 -5 43 -17 84 -27 41
-10 79 -22 84 -26 6 -5 22 -9 36 -9 15 0 30 -3 34 -7 12 -12 80 -33 110 -33
30 0 128 -25 158 -41 10 -5 29 -9 43 -9 14 0 25 -3 25 -8 0 -10 44 -27 125
-47 39 -9 88 -25 110 -35 22 -10 56 -21 75 -24 19 -3 53 -10 75 -16 22 -5 66
-15 98 -22 31 -7 57 -16 57 -20 0 -4 14 -8 30 -8 17 0 30 -4 30 -10 0 -5 9
-10 19 -10 11 0 23 -4 26 -10 3 -5 14 -10 24 -10 10 0 32 -7 47 -15 16 -8 37
-15 46 -15 9 0 20 -5 23 -10 3 -5 30 -10 58 -10 45 1 50 2 35 14 -9 7 -36 18
-60 25 -24 7 -51 17 -60 22 -10 5 -27 9 -38 9 -11 0 -20 5 -20 10 0 6 -8 10
-18 10 -10 0 -22 4 -27 8 -6 4 -37 16 -70 27 -33 10 -64 22 -69 27 -6 4 -18 8
-28 8 -10 0 -26 4 -36 9 -9 5 -37 14 -62 21 -71 18 -150 41 -211 61 -30 11
-64 19 -75 19 -11 0 -24 4 -30 8 -5 5 -45 17 -89 27 -44 10 -84 22 -89 26 -6
5 -25 9 -43 9 -18 0 -33 4 -33 9 0 5 -17 11 -37 14 -48 7 -199 50 -209 60 -4
4 -18 7 -30 7 -13 0 -26 5 -29 10 -3 6 -19 10 -34 10 -15 0 -31 4 -37 8 -5 5
-45 17 -89 27 -44 10 -84 22 -89 27 -6 4 -20 8 -33 8 -13 0 -31 4 -41 9 -9 5
-35 14 -57 19 -22 6 -65 17 -96 26 -31 9 -65 16 -77 16 -11 0 -24 5 -27 10 -3
6 -17 10 -31 10 -13 0 -32 4 -42 9 -41 21 -90 40 -132 51 -25 7 -53 16 -62 21
-10 5 -29 9 -42 9 -14 0 -28 5 -31 10 -3 6 -26 10 -49 10 -46 0 -105 20 -124
42 -6 8 -10 27 -10 44 1 17 -2 36 -5 42 -4 5 -1 12 7 15 17 7 207 -31 221 -44
5 -5 17 -9 26 -9 9 0 34 -9 56 -19 43 -22 165 -51 211 -51 17 0 34 -4 37 -10
3 -5 19 -10 35 -10 16 0 32 -4 35 -10 3 -5 26 -10 50 -10 24 0 46 -4 49 -9 3
-5 23 -11 43 -14 63 -9 148 -34 195 -58 10 -5 31 -9 47 -9 17 0 33 -4 36 -10
3 -5 23 -10 43 -10 21 0 46 -6 57 -13 11 -7 34 -14 50 -15 17 -1 32 -7 33 -12
2 -6 12 -10 22 -10 10 0 22 -4 25 -10 3 -5 22 -10 40 -10 19 0 54 -11 77 -24
27 -15 59 -23 86 -23 39 0 60 -6 114 -34 10 -5 27 -9 38 -9 11 0 28 -5 38 -10
14 -9 118 -30 280 -57 18 -3 35 -9 38 -14 3 -5 14 -9 25 -9 10 0 27 -4 37 -9
34 -17 67 -29 82 -30 8 0 35 -5 60 -11 25 -6 57 -14 73 -17 15 -3 27 -9 27
-14 0 -5 9 -9 20 -9 11 0 28 -4 38 -9 9 -5 45 -18 79 -28 35 -10 63 -21 63
-25 0 -5 11 -8 24 -8 13 0 26 -6 29 -12 3 -10 9 -10 26 -1 28 17 47 16 76 -3
l25 -16 0 590 c0 462 -3 592 -12 596 -10 5 -10 7 0 12 19 9 17 372 -3 410 -19
37 -19 53 0 60 11 5 13 10 5 19 -8 9 -8 15 0 20 13 8 14 215 0 215 -5 0 -10
-9 -10 -20 0 -11 -4 -20 -10 -20 -5 0 -10 8 -10 18 0 18 -48 42 -83 42 -9 0
-17 7 -17 16 0 13 9 15 53 12 28 -2 60 -8 70 -12 16 -8 17 37 17 868 l0 876
-1575 0 c-928 0 -1575 -4 -1575 -9 0 -5 -20 -17 -45 -28 -25 -10 -45 -21 -45
-25 0 -5 -11 -8 -25 -8 -14 0 -25 -4 -25 -10 0 -5 -9 -10 -20 -10 -11 0 -20
-4 -20 -10 0 -5 -7 -10 -16 -10 -16 0 -84 -29 -94 -39 -3 -4 -18 -13 -35 -21
-16 -8 -32 -17 -35 -20 -3 -3 -25 -15 -50 -27 -60 -29 -104 -56 -108 -65 -2
-5 -9 -8 -15 -8 -18 0 -117 -52 -117 -62 0 -4 -9 -8 -19 -8 -11 0 -23 -4 -26
-10 -3 -5 -13 -10 -21 -10 -9 0 -22 -6 -29 -12 -51 -46 -88 -62 -122 -53 -15
4 -49 9 -75 12 -27 3 -48 7 -48 10 0 9 45 42 58 43 6 0 12 5 12 10 0 6 10 10
23 10 12 0 38 13 57 28 19 16 50 37 68 47 17 11 32 23 32 27 0 4 5 8 10 8 9 0
87 47 100 60 3 3 19 12 35 20 17 8 51 30 76 47 26 18 51 33 58 33 6 0 11 3 11
8 0 4 17 15 38 25 20 10 51 26 67 35 l30 17 -32 3 c-20 2 -46 -5 -70 -20 -21
-13 -50 -30 -65 -37 -15 -8 -37 -22 -47 -33 -11 -10 -23 -18 -26 -18 -7 0 -87
-52 -104 -68 -11 -11 -49 -34 -112 -67 -11 -5 -19 -13 -19 -17 0 -5 -6 -8 -14
-8 -8 0 -42 -16 -76 -35 -34 -19 -66 -35 -71 -35 -5 0 -9 -4 -9 -10 0 -5 -6
-10 -14 -10 -8 0 -16 -3 -18 -7 -1 -5 -19 -16 -39 -26 -19 -10 -48 -29 -64
-43 -28 -24 -30 -24 -42 -8 -18 25 -16 61 5 67 17 6 72 37 82 47 10 10 45 31
63 36 9 4 17 10 17 15 0 5 5 9 11 9 6 0 30 16 53 35 24 19 48 35 55 35 6 0 11
4 11 9 0 5 24 27 53 49 28 22 65 51 81 65 17 14 45 34 63 44 42 23 42 33 -2
33 -19 0 -35 -4 -35 -10z m480 -585 c0 -8 -4 -15 -9 -15 -5 0 -11 7 -15 15 -3
9 0 15 9 15 8 0 15 -7 15 -15z m40 -5 c0 -5 -4 -10 -10 -10 -5 0 -10 5 -10 10
0 6 5 10 10 10 6 0 10 -4 10 -10z m-54 -100 c26 -36 43 -50 60 -50 26 0 27 -1
18 -24 -8 -22 -53 -20 -61 2 -4 9 -21 35 -40 58 -18 23 -33 46 -33 53 0 24 21
9 56 -39z m-71 -46 c-15 -15 -15 -14 -9 12 10 42 19 52 22 26 2 -12 -4 -29
-13 -38z m-17 -61 c-5 -26 -38 -29 -38 -4 0 15 6 21 21 21 14 0 19 -5 17 -17z
m642 -46 c0 -12 -9 -38 -19 -58 -11 -20 -16 -40 -13 -45 9 -13 50 -15 57 -3 6
9 45 13 45 5 0 -2 3 -11 6 -20 5 -14 -4 -16 -59 -16 -43 0 -67 -4 -70 -12 -4
-10 -8 -9 -16 2 -10 14 -5 49 8 60 9 8 43 71 39 74 -1 1 -14 10 -28 19 l-24
17 37 0 c32 0 37 -3 37 -23z m-202 -14 c-2 -22 2 -29 18 -31 28 -4 44 -40 32
-68 -12 -25 -70 -31 -88 -9 -16 19 -15 102 1 121 20 24 40 17 37 -13z m312 -4
c0 -17 4 -28 10 -24 6 3 10 14 10 25 0 10 7 21 15 24 31 12 46 -78 21 -123
l-13 -24 -11 32 c-8 23 -17 31 -36 31 -32 0 -40 13 -32 56 9 44 36 47 36 3z
m-720 2 c0 -5 -8 -23 -17 -39 -17 -29 -17 -31 0 -50 21 -23 22 -46 1 -63 -15
-12 -16 -11 -10 8 6 18 2 24 -19 29 -27 7 -29 21 -10 67 5 13 2 17 -14 17 -27
0 -27 12 2 26 28 14 67 17 67 5z m520 -1 c0 -5 -9 -10 -20 -10 -11 0 -20 5
-20 10 0 6 9 10 20 10 11 0 20 -4 20 -10z m-790 -52 c0 -8 -9 -24 -20 -36 -27
-29 -26 -32 14 -32 52 0 55 -27 3 -33 -23 -2 -52 -8 -64 -12 -19 -6 -23 -4
-23 13 0 11 9 26 20 33 10 8 22 27 26 43 6 26 5 27 -14 17 -26 -14 -32 -14
-32 -1 0 6 5 10 10 10 6 0 20 9 32 19 17 17 23 18 34 6 8 -7 14 -20 14 -27z
m132 25 c21 -19 23 -48 6 -86 -10 -21 -20 -27 -45 -27 -27 0 -34 5 -39 26 -4
14 -2 30 5 37 6 6 11 21 11 32 0 39 30 47 62 18z m268 -23 c0 -11 3 -20 8 -20
12 0 81 26 88 33 11 11 74 8 74 -3 0 -5 7 -10 15 -10 8 0 12 -6 9 -15 -4 -9
-15 -12 -33 -9 -15 3 -45 -1 -65 -10 -45 -19 -107 -21 -124 -4 -20 20 -15 58
8 58 13 0 20 -7 20 -20z m240 -105 c0 -8 -7 -15 -15 -15 -8 0 -15 7 -15 15 0
8 7 15 15 15 8 0 15 -7 15 -15z m118 3 c-7 -19 -50 -21 -73 -4 -19 14 -17 15
28 16 35 0 47 -4 45 -12z m232 -17 c0 -4 -5 -12 -12 -19 -9 -9 -9 -15 0 -24
22 -22 15 -37 -13 -25 -31 15 -43 57 -20 73 17 12 45 9 45 -5z m-774 -47 c-3
-9 -20 -14 -48 -14 -24 -1 -61 -4 -83 -9 -51 -10 -70 -4 -54 15 8 10 33 14 80
14 53 0 69 3 69 14 0 8 6 16 13 19 15 5 30 -20 23 -39z m59 16 c3 -5 -1 -10
-9 -10 -9 0 -19 0 -23 -1 -4 0 -9 4 -11 10 -5 14 35 14 43 1z m623 -2 c-2 -6
-10 -14 -16 -16 -7 -2 -10 2 -6 12 7 18 28 22 22 4z m-64 -41 c3 -18 17 -41
32 -52 32 -24 45 -47 34 -64 -6 -11 -15 -6 -39 18 -35 36 -51 39 -51 11 0 -11
-4 -20 -10 -20 -11 0 -14 98 -4 124 10 27 31 18 38 -17z m-84 -26 c0 -5 -11
-11 -25 -13 -24 -5 -32 2 -18 15 9 10 43 8 43 -2z m240 3 c0 -3 -6 -12 -14
-20 -16 -15 -32 -2 -21 16 7 11 35 14 35 4z m1536 -28 c18 -19 18 -26 -6 -56
-23 -29 -29 -150 -8 -150 9 0 9 -3 1 -11 -16 -16 -30 -4 -36 28 -3 16 -10 44
-15 63 l-10 35 -1 -37 c-1 -20 -7 -38 -13 -41 -10 -3 -10 -7 1 -20 15 -19 7
-51 -12 -45 -7 3 -15 33 -19 74 -4 38 -10 88 -14 112 -5 38 -4 42 14 42 12 0
24 5 27 10 9 15 74 12 91 -4z m-1511 -41 c-65 -18 -75 -18 -75 0 0 12 13 15
63 14 l62 0 -50 -14z m-275 -25 c0 -5 -7 -10 -16 -10 -8 0 -12 5 -9 10 3 6 10
10 16 10 5 0 9 -4 9 -10z m-1082 -46 c17 -18 32 -38 32 -44 0 -6 -25 -10 -59
-10 -33 0 -63 -4 -66 -10 -3 -5 -17 -10 -30 -10 -13 0 -25 -4 -27 -9 -1 -4
-13 -12 -25 -15 -22 -7 -23 -5 -23 49 0 75 10 84 95 83 65 -1 72 -3 103 -34z
m1286 -9 c-5 -19 -2 -25 10 -25 11 0 16 -9 16 -27 -1 -25 -2 -26 -14 -10 -7 9
-23 17 -35 17 -24 0 -26 6 -8 43 16 35 40 36 31 2z m96 17 c0 -4 -5 -13 -12
-20 -8 -8 -6 -16 12 -30 13 -10 21 -26 19 -37 -4 -19 -5 -19 -27 3 -12 12 -22
18 -22 12 0 -5 -4 -10 -10 -10 -15 0 -12 38 6 65 16 24 34 33 34 17z m1713 -6
c27 -21 23 -82 -8 -102 -31 -21 -60 -11 -75 26 -18 43 2 90 39 90 14 0 34 -7
44 -14z m97 -11 c0 -14 6 -25 13 -25 8 0 19 -12 26 -27 10 -21 9 -28 -1 -34
-8 -5 -17 -3 -24 6 -12 16 -34 20 -34 6 0 -5 7 -14 15 -21 26 -22 0 -36 -29
-16 -30 19 -31 27 -10 89 17 51 44 64 44 22z m130 9 c0 -9 -9 -18 -20 -21 -24
-6 -26 -26 -5 -43 23 -19 15 -54 -12 -58 -25 -4 -33 22 -10 32 9 3 8 8 -4 15
-22 14 -33 59 -18 77 16 20 69 18 69 -2z m145 -27 c7 -28 -11 -81 -25 -72 -5
3 -10 26 -10 51 0 32 4 44 15 44 8 0 17 -10 20 -23z m-3735 -3 c0 -23 -22 -41
-57 -46 -34 -5 -34 1 0 40 24 25 57 29 57 6z m3670 -40 c0 -32 -4 -44 -15 -44
-15 0 -17 8 -17 50 0 43 2 49 17 44 10 -4 15 -20 15 -50z m-1740 26 c0 -5 -13
-10 -30 -10 -29 0 -30 -1 -30 -52 -1 -54 -24 -106 -35 -77 -2 8 -4 25 -3 39 4
58 -2 82 -22 87 -43 11 -17 23 50 23 40 0 70 -4 70 -10z m277 -52 c-3 -22 -4
-21 -11 4 -5 16 -5 36 0 45 7 16 8 15 11 -4 3 -13 3 -33 0 -45z m231 40 c7 -9
7 -30 0 -67 -7 -38 -6 -62 1 -78 15 -32 14 -33 -9 -33 -20 0 -21 3 -24 85 -2
42 -36 58 -36 17 0 -9 -12 -27 -27 -39 -37 -32 -52 -13 -20 23 14 16 35 40 46
54 38 47 42 50 50 50 5 0 13 -6 19 -12z m-1993 -8 c3 -5 1 -10 -4 -10 -6 0
-11 5 -11 10 0 6 2 10 4 10 3 0 8 -4 11 -10z m1537 -66 c-4 -56 -22 -104 -22
-56 0 31 -46 31 -56 0 -7 -19 -9 -14 -15 27 -6 50 4 84 17 52 3 -9 17 -17 30
-17 20 0 24 5 24 31 0 20 4 29 13 26 8 -3 11 -22 9 -63z m106 49 c2 -8 -5 -13
-17 -13 -27 0 -38 -20 -17 -32 16 -9 16 -11 -3 -25 -30 -20 -26 -33 10 -33 20
0 29 -4 26 -12 -2 -8 -18 -12 -43 -10 -21 2 -40 5 -41 6 -1 1 1 28 4 60 5 46
10 59 27 66 27 11 48 8 54 -7z m73 -25 c12 -18 24 -35 26 -38 2 -2 8 2 13 10
7 11 10 6 10 -17 0 -26 -4 -33 -19 -33 -11 0 -27 10 -35 22 l-16 22 0 -23 c0
-14 -5 -21 -12 -19 -8 3 -14 26 -16 56 -4 63 14 70 49 20z m-1681 -7 c0 -19
-29 -63 -30 -44 0 6 5 15 11 19 6 3 9 17 6 30 -2 13 0 21 4 18 5 -3 9 -13 9
-23z m-210 -5 c0 -25 -12 -46 -26 -46 -8 0 -14 -4 -14 -10 0 -16 -19 -12 -51
11 -52 37 -36 56 49 58 30 1 42 -3 42 -13z m154 5 c7 -11 -14 -20 -31 -13 -7
2 -10 8 -7 13 7 12 31 12 38 0z m-603 -66 c3 -28 9 -62 13 -77 5 -18 4 -28 -2
-28 -24 0 -63 21 -93 49 -29 28 -30 32 -18 64 10 28 16 33 35 29 15 -3 24 0
24 8 0 6 8 10 18 8 12 -2 19 -16 23 -53z m570 23 c19 -18 40 -45 48 -61 22
-41 -5 -56 -96 -57 -73 0 -97 -14 -47 -26 39 -10 29 -45 -16 -56 -59 -14 -120
-39 -120 -49 0 -12 47 -12 54 0 3 5 34 12 68 16 53 6 63 5 75 -11 7 -10 13
-28 13 -40 0 -27 -25 -34 -125 -32 -42 1 -80 -4 -95 -12 l-25 -14 24 -6 c31
-7 39 -28 14 -37 -21 -8 -86 -55 -91 -65 -5 -11 -32 -10 -32 2 0 5 -19 29 -42
54 -24 24 -52 56 -63 72 -11 15 -25 32 -30 38 -18 18 -45 60 -45 68 0 16 31 8
73 -18 23 -15 44 -31 45 -35 2 -5 10 -9 18 -9 8 0 14 -4 14 -10 0 -5 8 -10 19
-10 10 0 24 -7 31 -15 7 -8 24 -15 39 -15 l26 1 -29 24 c-16 13 -41 29 -55 36
-55 27 -91 60 -90 82 0 12 3 16 6 10 9 -23 54 -14 79 15 13 15 24 30 24 35 0
13 -27 8 -40 -8 -29 -35 -96 -3 -106 50 -10 56 2 75 47 75 32 0 39 -4 39 -19
0 -29 11 -51 25 -51 13 0 25 30 25 68 0 35 54 31 86 -8 15 -17 43 -34 65 -40
52 -14 99 10 114 58 12 41 32 41 76 0z m2784 -29 c4 -11 5 -22 3 -24 -2 -2
-34 1 -71 8 -90 15 -92 37 -3 37 57 0 65 -3 71 -21z m85 17 c0 -3 -4 -8 -10
-11 -5 -3 -10 -1 -10 4 0 6 5 11 10 11 6 0 10 -2 10 -4z m317 -14 c94 -4 175
-10 179 -15 11 -10 -9 -28 -32 -28 -10 1 -75 5 -144 11 -69 5 -152 11 -185 12
-49 3 -60 6 -63 22 -4 16 0 18 35 11 21 -3 115 -10 210 -13z m313 9 c0 -6 -4
-13 -10 -16 -5 -3 -10 1 -10 9 0 9 5 16 10 16 6 0 10 -4 10 -9z m174 -26 c4
-11 -2 -15 -24 -15 -33 0 -54 -25 -64 -76 -8 -36 19 -74 54 -74 19 0 21 -2 10
-16 -20 -23 -63 -14 -76 16 -17 37 -4 115 26 150 26 32 64 40 74 15z m-922
-35 c11 0 18 -7 18 -20 0 -30 -44 -27 -58 4 -12 26 -4 42 12 26 5 -5 18 -10
28 -10z m-938 -16 c3 -9 6 -33 6 -54 0 -21 5 -42 10 -45 12 -8 13 -45 1 -45
-5 0 -14 7 -21 15 -15 18 -51 20 -67 4 -19 -19 -34 -1 -21 26 6 14 15 25 20
25 4 0 8 9 8 20 0 11 4 20 9 20 5 0 12 11 15 25 7 28 31 33 40 9z m1896 -14
c0 -33 -24 -42 -32 -12 -7 24 1 42 18 42 9 0 14 -11 14 -30z m-2325 -18 c13
-28 19 -28 35 3 19 36 37 31 43 -12 3 -21 9 -51 13 -66 6 -25 4 -28 -12 -25
-13 2 -20 13 -22 35 -2 23 -7 30 -18 26 -8 -3 -14 -14 -14 -24 0 -26 -29 -24
-39 4 -8 21 -10 20 -27 -18 -18 -40 -18 -40 -22 -12 -4 33 28 118 43 114 6 -2
14 -13 20 -25z m263 16 c7 -7 12 -29 12 -51 0 -23 7 -45 17 -55 16 -16 15 -17
-7 -20 -14 -2 -27 3 -32 12 -10 18 -38 22 -38 5 0 -5 -4 -8 -9 -5 -4 3 -8 23
-8 44 0 21 -3 48 -7 60 -7 20 -4 22 26 22 19 0 39 -5 46 -12z m284 -5 c24 -21
23 -33 -2 -33 -11 0 -20 5 -20 12 0 9 -3 9 -11 1 -6 -6 -9 -26 -7 -44 2 -28 7
-34 27 -34 14 0 26 -5 28 -11 6 -17 -32 -23 -59 -10 -18 9 -24 21 -26 60 -5
70 28 98 70 59z m1199 -22 c11 -39 -1 -91 -22 -91 -12 0 -8 46 7 84 5 14 3 17
-11 15 -12 -3 -22 -19 -29 -49 -7 -29 -16 -45 -26 -45 -8 0 -13 7 -11 15 2 8
3 36 3 61 l-1 46 40 0 c36 0 40 -2 50 -36z m-1583 -47 c4 -45 2 -56 -9 -52
-15 5 -33 92 -24 116 11 29 28 -5 33 -64z m1736 60 c9 -3 16 -10 16 -15 0 -14
-26 -10 -40 6 -13 16 -3 20 24 9z m591 -13 c4 -13 -3 -28 -20 -45 -25 -25 -25
-27 -10 -56 14 -28 14 -31 0 -36 -23 -9 -29 2 -30 54 0 35 -5 51 -20 64 -19
16 -19 16 15 26 51 15 58 14 65 -7z m-1850 -41 c0 -43 1 -45 33 -48 20 -2 32
-9 32 -18 0 -12 -11 -14 -47 -12 l-48 3 -3 63 c-3 57 -1 63 15 60 14 -3 18
-13 18 -48z m159 44 c12 -5 13 -9 3 -19 -6 -7 -18 -10 -25 -7 -10 3 -13 -2
-10 -19 2 -16 11 -25 26 -27 19 -3 21 -6 11 -18 -6 -8 -18 -14 -25 -14 -8 0
-14 -9 -14 -20 0 -15 7 -20 25 -20 16 0 25 -6 25 -15 0 -15 -10 -19 -45 -15
-28 3 -29 5 -30 63 -1 29 -5 62 -9 74 -4 13 -4 27 -1 33 7 11 45 13 69 4z
m1006 -51 c-1 -54 -2 -57 -16 -38 -8 11 -12 26 -9 33 3 8 5 25 5 38 0 13 5 24
10 24 6 0 10 -26 10 -57z m250 38 c0 -11 5 -23 10 -26 17 -11 11 -35 -9 -35
-21 0 -31 19 -31 56 0 15 6 24 15 24 8 0 15 -9 15 -19z m60 -13 c0 -5 -7 -8
-15 -8 -17 0 -18 2 -9 25 5 13 8 14 15 3 5 -7 9 -16 9 -20z m-790 -22 c-6 -19
-18 -40 -26 -46 -22 -19 -17 -44 15 -63 16 -9 41 -31 55 -47 13 -17 29 -30 35
-30 6 0 11 -4 11 -10 0 -5 0 -13 0 -17 0 -5 -4 -8 -8 -8 -9 0 -90 64 -131 104
l-25 24 -22 -26 c-29 -34 -40 -106 -25 -170 13 -55 9 -66 -14 -47 -11 9 -15
33 -15 91 l0 79 -55 0 c-30 0 -55 5 -55 10 0 6 18 10 39 10 22 0 42 4 46 9 6
11 -8 105 -20 134 -13 31 32 20 72 -18 45 -42 66 -44 82 -7 33 73 63 94 41 28z
m549 25 c14 -13 21 -28 19 -43 -3 -20 -6 -18 -26 20 -25 47 -24 50 7 23z
m-3279 -10 c-7 -13 -7 -22 0 -26 5 -3 10 -12 10 -18 0 -7 -11 1 -25 17 -27 31
-25 46 6 46 16 0 18 -3 9 -19z m3548 -39 c2 -7 -3 -12 -12 -12 -9 0 -16 7 -16
16 0 17 22 14 28 -4z m-278 -12 c8 -5 11 -12 8 -16 -10 -9 -38 3 -38 16 0 12
10 13 30 0z m-815 -70 c0 -20 -5 -24 -27 -23 -46 2 -48 2 -42 17 3 8 11 13 19
10 7 -3 15 2 19 11 9 24 31 13 31 -15z m-944 -9 c37 -34 6 -110 -45 -111 -30
0 -56 30 -56 63 0 58 60 86 101 48z m127 2 c2 -7 -3 -13 -11 -13 -7 0 -21 -8
-30 -18 -20 -22 -7 -47 24 -47 32 0 35 -21 4 -29 -69 -17 -94 49 -41 111 13
16 48 13 54 -4z m95 3 c26 -20 21 -29 -13 -22 -22 4 -32 1 -36 -9 -7 -17 18
-45 40 -45 9 0 16 -7 16 -15 0 -19 -30 -19 -58 1 -15 10 -22 25 -22 48 0 51
34 71 73 42z m1852 4 c3 -5 31 -10 61 -10 35 0 53 -4 49 -10 -7 -11 -107 -13
-192 -3 -36 3 -53 10 -53 19 0 11 16 14 64 14 36 0 68 -4 71 -10z m-1725 -39
c0 -16 3 -36 6 -44 3 -10 -5 -20 -25 -30 -29 -14 -32 -14 -44 4 -8 10 -12 33
-9 51 l5 32 11 -34 c17 -52 36 -50 36 4 0 25 5 46 10 46 6 0 10 -13 10 -29z
m110 8 c0 -11 -5 -29 -10 -39 -8 -16 -6 -22 15 -36 34 -22 12 -38 -26 -19 -29
15 -41 11 -32 -11 3 -8 0 -14 -5 -14 -13 0 -19 20 -27 88 l-6 52 45 0 c40 0
46 -3 46 -21z m104 5 c4 -12 1 -14 -14 -9 -30 10 -25 -13 11 -46 19 -17 29
-35 25 -44 -6 -16 -36 -10 -36 7 0 6 -8 18 -18 27 -20 17 -36 64 -25 75 12 12
51 6 57 -10z m-2058 -33 c-10 -10 -13 -21 -9 -22 5 -2 6 -33 3 -69 l-5 -65
-23 47 c-28 60 -28 91 1 111 33 24 55 22 33 -2z m-96 -16 c7 -9 10 -18 7 -22
-8 -8 -67 17 -67 28 0 15 47 10 60 -6z m3768 -6 c11 -17 11 -24 2 -33 -9 -8
-14 -8 -17 2 -3 6 -13 12 -22 12 -25 0 -33 11 -20 27 17 19 42 16 57 -8z
m-1324 -13 c-3 -8 -12 -12 -20 -9 -21 8 -17 23 6 23 13 0 18 -5 14 -14z m1197
-28 c9 -16 9 -23 0 -26 -6 -2 -11 -11 -11 -20 0 -9 -8 -26 -16 -37 -15 -19
-16 -18 -9 15 3 19 6 47 6 63 0 33 14 35 30 5z m299 13 c0 -6 -4 -13 -10 -16
-5 -3 -10 -15 -10 -26 0 -10 -4 -19 -10 -19 -5 0 -10 16 -10 35 0 28 4 35 20
35 11 0 20 -4 20 -9z m-1563 -26 c-8 -9 -14 -10 -19 -2 -9 16 0 27 17 21 11
-5 12 -9 2 -19z m-243 -1 c9 -8 16 -20 16 -25 0 -14 -20 -11 -36 5 -16 16 -19
36 -5 36 5 0 17 -7 25 -16z m-2104 -28 c0 -6 13 -28 30 -48 l30 -36 -20 -58
c-11 -33 -20 -67 -20 -76 0 -10 -4 -18 -9 -18 -9 0 -21 48 -21 89 0 14 -9 40
-19 58 -13 20 -19 47 -18 76 2 42 3 44 24 34 13 -6 23 -15 23 -21z m2266 -3
c-10 -10 -19 5 -10 18 6 11 8 11 12 0 2 -7 1 -15 -2 -18z m1405 -4 c16 -24 19
-33 10 -42 -16 -15 -41 16 -41 50 0 30 4 29 31 -8z m-696 11 c4 -6 60 -10 136
-10 107 0 129 -3 129 -15 0 -8 -6 -12 -13 -9 -7 2 -30 -3 -51 -11 -39 -17
-142 -13 -193 6 -21 8 -53 -14 -40 -28 4 -3 2 -15 -4 -26 -6 -10 -14 -40 -18
-66 -4 -32 -11 -47 -24 -49 -13 -3 -17 3 -17 27 0 17 5 31 10 31 6 0 10 15 10
34 0 19 4 37 9 40 4 3 11 24 15 46 5 31 11 40 26 40 10 0 22 -4 25 -10z
m-1345 -42 c0 -15 -27 -38 -44 -38 -9 0 -16 -4 -16 -10 0 -5 -18 -10 -39 -10
-22 0 -43 -4 -46 -10 -3 -5 -15 -10 -26 -10 -10 0 -19 -4 -19 -10 0 -5 -6 -7
-13 -4 -8 3 -23 -15 -40 -45 -23 -43 -25 -54 -16 -78 7 -16 13 -22 16 -15 5
13 69 17 75 4 2 -4 18 -18 36 -31 17 -12 32 -29 32 -38 0 -12 -9 -14 -47 -9
-73 10 -106 11 -134 2 -24 -7 -27 -4 -43 37 -9 25 -28 57 -41 72 -26 27 -32
45 -15 45 11 0 100 89 100 101 0 5 24 9 53 9 30 0 57 3 61 8 26 26 166 52 166
30z m1242 -90 c-12 -12 -68 -6 -65 7 1 6 12 13 25 16 26 7 54 -9 40 -23z m151
17 c4 -8 2 -17 -3 -20 -6 -4 -10 -17 -10 -31 0 -13 -4 -24 -10 -24 -11 0 -13
33 -4 68 7 25 19 29 27 7z m68 -22 c8 -16 20 -34 27 -42 9 -10 10 -17 3 -24
-17 -17 -61 31 -61 65 0 36 13 36 31 1z m-1541 -28 c0 -29 -4 -45 -12 -46 -7
0 -2 -5 12 -11 15 -6 20 -12 13 -15 -7 -3 -13 -18 -13 -34 0 -35 -24 -39 -51
-8 -10 12 -35 23 -59 26 -22 3 -43 10 -46 14 -3 5 6 28 20 51 14 24 26 37 26
31 0 -7 5 -13 10 -13 6 0 10 7 10 15 0 8 5 15 10 15 6 0 10 -7 10 -15 0 -8 -4
-15 -10 -15 -17 0 -11 -18 15 -45 30 -29 48 -33 42 -7 -3 9 -8 29 -11 45 -4
15 -11 27 -16 27 -6 0 -10 7 -10 15 0 10 10 15 30 15 29 0 30 -2 30 -45z
m-621 -12 c14 -31 14 -33 -4 -33 -14 0 -55 54 -55 72 0 16 49 -16 59 -39z
m1791 22 c0 -8 5 -15 10 -15 6 0 10 -9 10 -20 0 -11 -4 -20 -10 -20 -5 0 -10
-7 -10 -15 0 -8 -5 -15 -10 -15 -6 0 -13 7 -16 15 -4 8 -15 15 -25 15 -25 0
-24 16 2 23 11 3 23 15 26 26 6 24 23 28 23 6z m-1610 -45 c0 -12 -45 -24 -65
-16 -29 11 -15 26 25 26 22 0 40 -4 40 -10z m120 -40 c16 -16 30 -33 30 -37 0
-4 9 -19 20 -33 22 -28 28 -104 8 -98 -10 4 -83 135 -102 186 -9 21 12 13 44
-18z m-70 -9 c0 -5 6 -16 13 -23 14 -14 50 -88 62 -126 8 -26 -9 -46 -57 -71
-26 -13 -29 -12 -67 28 -23 24 -42 46 -42 49 -1 4 -3 35 -4 70 -2 54 0 62 16
62 10 0 21 5 24 10 8 13 55 13 55 1z m-1137 -63 c-15 -132 -18 -140 -41 -88
-8 17 -20 30 -27 30 -16 0 -28 27 -15 35 6 4 10 17 10 31 0 21 4 24 38 24 38
0 38 -1 35 -32z m2717 23 c0 -18 -30 -33 -55 -27 -42 11 -31 36 15 36 22 0 40
-4 40 -9z m144 -25 c-4 -11 -13 -12 -36 -5 -46 13 -46 19 0 19 31 0 40 -3 36
-14z m708 -39 c11 -3 18 -12 16 -19 -6 -18 -49 -23 -59 -7 -6 10 -12 9 -29 -6
-18 -16 -21 -27 -16 -57 4 -21 3 -38 -1 -38 -18 0 -43 36 -43 62 0 21 -5 28
-19 28 -11 0 -23 5 -26 10 -3 6 3 10 15 10 12 0 30 10 40 23 15 18 21 20 31
10 17 -17 29 -16 29 1 0 22 24 26 34 5 4 -9 17 -20 28 -22z m-628 -2 c-6 -34
6 -49 21 -25 3 6 17 10 31 10 13 0 24 -4 24 -10 0 -23 20 -7 31 25 9 23 18 34
27 30 7 -3 22 -5 33 -5 13 0 19 -7 19 -21 0 -16 -5 -20 -20 -16 -32 8 -35 -13
-5 -37 25 -20 27 -27 22 -60 -8 -49 -23 -66 -58 -66 -37 0 -37 15 1 35 34 18
34 16 18 50 -6 14 -19 25 -29 25 -9 0 -19 5 -21 11 -2 7 -13 9 -26 5 -17 -6
-22 -15 -22 -42 0 -22 -5 -34 -14 -34 -17 0 -31 33 -17 38 6 2 11 10 11 19 0
11 -7 13 -30 8 -32 -7 -34 -4 -30 50 2 37 7 45 26 45 12 0 13 -8 8 -35z m66
14 c0 -5 -7 -9 -15 -9 -15 0 -20 12 -9 23 8 8 24 -1 24 -14z m-3131 -35 c33
-17 57 -37 64 -53 6 -14 16 -33 23 -41 14 -16 22 -229 10 -249 -5 -7 -45 -11
-107 -11 -92 0 -99 1 -99 20 0 16 7 20 35 20 29 0 35 4 35 20 0 13 -6 20 -14
18 -8 -2 -28 12 -45 30 -26 26 -39 32 -74 32 -23 0 -55 -7 -71 -15 -15 -8 -36
-15 -45 -15 -9 0 -21 -4 -26 -9 -14 -13 -113 -23 -119 -12 -3 5 4 40 17 77
l23 69 49 7 c28 3 77 7 110 7 l61 1 47 56 c26 31 47 60 47 65 0 15 24 10 79
-17z m2971 -2 c0 -5 11 -15 25 -22 24 -13 35 -40 16 -40 -4 0 -20 -12 -34 -26
-28 -28 -60 -26 -71 3 -9 23 2 29 26 14 32 -20 47 3 21 31 -35 39 -36 48 -9
48 14 0 26 -4 26 -8z m906 -25 l27 -33 36 18 c37 19 81 24 81 10 0 -5 -11 -14
-25 -20 -14 -7 -36 -17 -49 -23 l-25 -12 20 -38 c10 -21 19 -51 19 -66 1 -15
7 -39 15 -53 8 -14 14 -35 15 -47 0 -25 19 -30 37 -12 6 6 16 8 22 5 15 -10
14 -36 -2 -36 -7 0 -19 -9 -27 -20 -17 -24 -45 -26 -54 -5 -3 8 -23 22 -44 30
-79 32 -115 130 -74 200 l21 35 -19 46 c-23 52 -23 54 -11 54 5 0 21 -15 37
-33z m-4311 -104 c-4 -10 -14 -34 -21 -53 l-13 -35 -1 41 c0 38 13 64 33 64 5
0 6 -8 2 -17z m4200 -13 c4 -6 -5 -10 -19 -10 -14 0 -26 5 -26 10 0 6 9 10 19
10 11 0 23 -4 26 -10z m-277 -18 c3 -9 -2 -13 -14 -10 -9 1 -19 9 -22 16 -3 9
2 13 14 10 9 -1 19 -9 22 -16z m117 -41 c0 -19 -100 -44 -125 -31 -28 15 -15
37 19 32 16 -2 37 1 48 7 24 14 58 10 58 -8z m99 3 c9 -3 16 -15 16 -25 0 -20
-15 -26 -25 -9 -11 17 -23 11 -32 -17 l-10 -28 -7 30 c-6 22 -3 32 10 42 20
15 26 15 48 7z m-94 -104 c0 -12 -50 -30 -85 -30 -24 0 -35 5 -35 14 0 8 5 16
11 18 20 6 109 5 109 -2z m80 -21 c0 -5 -7 -9 -15 -9 -15 0 -20 12 -9 23 8 8
24 -1 24 -14z m265 -118 c3 -5 1 -12 -5 -16 -5 -3 -10 1 -10 9 0 18 6 21 15 7z
m-2948 -212 c9 -9 8 -15 -2 -25 -19 -20 -45 -17 -45 4 0 32 25 43 47 21z m-57
-47 c0 -4 -15 -13 -33 -20 -41 -15 -47 -15 -47 -2 0 6 9 10 19 10 11 0 23 5
26 10 7 12 35 13 35 2z m120 -5 c21 -16 53 -85 45 -97 -4 -6 0 -17 8 -24 20
-20 8 -90 -16 -94 -10 -2 -17 3 -17 12 0 9 5 16 10 16 14 0 12 32 -4 53 -18
24 -23 22 -36 -18 -14 -44 -40 -47 -40 -5 0 38 -10 38 -32 0 -10 -18 -25 -30
-38 -30 -13 0 -20 -7 -20 -20 0 -23 12 -25 40 -8 15 10 22 10 32 0 14 -14 48
-16 48 -2 0 17 21 11 38 -10 15 -17 20 -18 42 -7 22 11 25 20 28 70 2 36 9 65
20 77 23 27 44 26 38 -2 -12 -59 -16 -199 -6 -217 25 -48 17 -193 -9 -154 -13
19 -243 -11 -323 -42 -14 -5 -18 -2 -18 13 0 12 -4 31 -9 44 -5 13 -14 46 -20
73 -18 74 -82 249 -94 257 -7 4 -8 10 -4 15 4 4 14 3 21 -2 7 -6 35 -27 62
-47 27 -21 57 -38 66 -38 23 0 33 41 19 81 -6 17 -8 35 -6 40 7 11 65 39 82
39 7 0 13 5 13 10 0 6 7 10 15 10 8 0 15 5 15 10 0 14 32 12 50 -3z"/>
<path d="M1960 4310 c0 -11 7 -20 15 -20 8 0 15 9 15 20 0 11 -7 20 -15 20 -8
0 -15 -9 -15 -20z"/>
<path d="M1371 4321 c-17 -11 -5 -51 15 -51 8 0 14 10 14 24 0 29 -10 38 -29
27z"/>
<path d="M3767 4076 c-6 -15 1 -26 15 -26 4 0 8 9 8 20 0 23 -15 27 -23 6z"/>
<path d="M3720 4046 c0 -14 5 -26 10 -26 6 0 10 9 10 19 0 11 -4 23 -10 26 -6
4 -10 -5 -10 -19z"/>
<path d="M3987 3948 c-5 -35 7 -58 29 -58 23 0 29 48 9 70 -25 28 -32 25 -38
-12z"/>
<path d="M2676 3684 c-9 -22 -8 -24 9 -24 8 0 15 6 15 14 0 22 -17 28 -24 10z"/>
<path d="M3648 3555 c5 -29 17 -32 26 -8 4 9 1 20 -6 25 -21 13 -25 9 -20 -17z"/>
<path d="M2503 3507 c-13 -5 -23 -16 -23 -24 0 -16 39 -33 58 -26 6 3 12 13
12 23 0 27 -21 39 -47 27z"/>
<path d="M2970 3497 c0 -19 4 -25 15 -21 8 4 15 10 15 14 0 4 -7 13 -15 20
-13 11 -15 8 -15 -13z"/>
<path d="M860 2922 c0 -21 37 -102 47 -102 3 0 3 18 0 40 -4 30 -2 40 9 40 8
0 14 -6 14 -14 0 -16 28 -41 36 -33 4 3 0 19 -6 34 -21 46 -100 73 -100 35z"/>
<path d="M840 2825 c0 -8 5 -15 10 -15 6 0 10 -11 10 -25 0 -29 34 -36 44 -9
9 22 8 24 -9 24 -9 0 -18 6 -21 14 -8 20 -34 29 -34 11z"/>
<path d="M4767 2837 c-5 -54 15 -104 48 -119 40 -18 51 1 26 48 -12 21 -21 44
-21 51 0 7 -4 13 -10 13 -5 0 -10 9 -10 19 0 10 -6 21 -14 24 -10 4 -15 -6
-19 -36z"/>
<path d="M1780 2048 c0 -8 3 -18 7 -22 11 -11 13 -76 2 -76 -5 0 -9 9 -9 19 0
11 -4 23 -10 26 -5 3 -10 15 -10 26 0 10 -4 19 -10 19 -5 0 -10 -9 -10 -20 0
-11 5 -20 10 -20 6 0 10 -12 10 -27 0 -16 7 -37 15 -47 8 -11 15 -14 15 -8 0
7 5 12 10 12 6 0 10 -7 10 -15 0 -8 5 -15 10 -15 6 0 10 14 10 30 0 17 -4 30
-10 30 -5 0 -10 17 -10 39 0 22 -6 44 -15 51 -12 10 -15 10 -15 -2z"/>
<path d="M1880 2006 c0 -7 3 -35 7 -62 l7 -49 7 35 c8 39 1 90 -12 90 -5 0 -9
-6 -9 -14z"/>
<path d="M1920 1991 c0 -31 28 -106 31 -81 2 24 -2 73 -7 93 -8 27 -24 20 -24
-12z"/>
<path d="M1990 1995 c0 -14 5 -25 10 -25 6 0 10 -8 10 -17 0 -14 2 -15 13 -4
10 11 10 14 0 18 -7 3 -13 16 -13 29 0 13 -4 24 -10 24 -5 0 -10 -11 -10 -25z"/>
<path d="M1735 3900 c-3 -5 -24 -15 -45 -21 -22 -7 -40 -16 -40 -21 0 -5 -7
-16 -16 -25 -13 -13 -19 -14 -40 -3 -21 12 -27 11 -50 -11 -22 -21 -64 -88
-64 -103 0 -8 73 -2 88 7 6 5 12 21 12 37 0 23 4 28 16 23 10 -4 14 -13 10
-27 -19 -65 -19 -76 0 -76 12 0 24 -12 32 -29 7 -17 26 -36 43 -43 20 -9 29
-20 29 -35 0 -14 6 -23 16 -23 10 0 14 6 11 14 -3 8 1 22 8 33 24 31 18 42
-25 41 -23 0 -44 3 -48 7 -12 12 -4 97 10 112 8 7 37 14 68 14 31 1 60 8 68
15 7 8 18 14 23 14 17 0 9 -29 -12 -43 -24 -17 -23 -60 2 -65 11 -2 23 11 36
40 23 50 19 117 -9 157 -15 21 -18 22 -32 8 -9 -9 -16 -20 -16 -26 0 -23 -40
-11 -46 14 -6 26 -18 32 -29 15z m3 -83 c2 -12 -3 -17 -17 -17 -23 0 -24 1
-15 25 8 19 28 15 32 -8z"/>
<path d="M1982 3828 c-14 -14 -16 -38 -4 -38 12 0 32 23 32 37 0 16 -12 17
-28 1z"/>
<path d="M805 2230 c-4 -6 -13 -9 -21 -6 -11 4 -14 -4 -14 -34 0 -22 -4 -40
-10 -40 -5 0 -10 -9 -10 -20 0 -11 -4 -20 -10 -20 -5 0 -10 -7 -10 -15 0 -7
-7 -18 -16 -23 -23 -13 -47 -122 -47 -212 1 -156 20 -528 29 -541 4 -8 9 -41
10 -73 3 -78 11 -106 30 -106 15 0 15 26 -2 173 -4 31 -2 53 6 63 10 11 11 27
2 67 -15 71 -37 356 -35 442 2 66 36 175 54 175 10 0 21 -88 14 -110 -4 -11
-11 -20 -16 -20 -13 0 -11 -77 2 -102 19 -35 31 -150 18 -179 -9 -23 -7 -32
11 -57 22 -30 23 -43 29 -339 1 -54 4 -63 20 -63 20 0 22 11 41 157 7 58 5 93
-11 180 -43 229 -45 252 -39 408 1 17 -2 78 -7 137 -5 64 -5 115 1 128 11 24
-6 51 -19 30z"/>
<path d="M2196 1528 c-3 -13 -6 -35 -6 -50 0 -15 -4 -30 -10 -33 -5 -3 -10
-18 -10 -33 0 -15 -9 -60 -20 -100 -11 -39 -20 -83 -20 -98 0 -42 23 -22 36
32 6 27 16 60 22 74 l10 25 12 -31 c6 -17 22 -37 35 -44 20 -11 29 -10 60 9
20 11 38 21 41 21 2 0 3 -19 2 -42 -3 -38 0 -43 20 -46 12 -2 22 1 22 7 0 16
29 13 46 -4 8 -8 21 -12 29 -9 22 9 18 24 -5 24 -28 0 -26 34 4 66 l23 26 17
-42 c9 -22 20 -39 24 -36 11 7 3 118 -9 130 -17 19 -9 31 28 43 43 13 53 10
53 -17 0 -10 5 -22 10 -25 6 -3 10 -26 10 -50 0 -42 18 -64 41 -49 10 6 2 53
-12 69 -5 5 -9 22 -9 37 0 21 5 28 19 28 11 0 23 5 26 10 3 6 15 10 25 10 38
0 42 -85 6 -112 -5 -3 -1 -14 8 -23 24 -24 34 -10 42 55 5 46 3 59 -14 80 -19
23 -21 24 -72 12 -35 -8 -57 -9 -65 -2 -22 19 -115 -1 -159 -34 -61 -46 -124
-86 -136 -86 -5 0 -10 -4 -10 -9 0 -5 -10 -11 -22 -14 -29 -8 -58 18 -58 53 0
15 -9 35 -20 45 -14 13 -17 22 -10 29 5 5 10 24 10 41 0 16 4 36 9 44 10 15 4
41 -9 41 -4 0 -10 -10 -14 -22z m278 -176 c2 -4 -2 -18 -9 -32 -12 -22 -14
-23 -20 -7 -12 30 13 64 29 39z m-64 -56 c0 -13 -9 -34 -20 -47 -19 -23 -19
-23 -20 -3 0 24 22 74 33 74 4 0 7 -11 7 -24z"/>
<path d="M2730 1514 c0 -9 31 -37 36 -32 9 9 -8 38 -22 38 -8 0 -14 -3 -14 -6z"/>
<path d="M2025 1448 c-5 -18 -9 -42 -10 -53 -1 -11 -2 -28 -3 -37 -2 -20 -32
-24 -49 -7 -6 6 -16 8 -22 5 -16 -10 -1 -36 20 -36 10 0 19 -4 19 -10 0 -5 9
-10 20 -10 24 0 40 35 40 90 0 54 9 74 26 59 8 -6 14 -22 14 -35 0 -27 15 -32
24 -9 11 31 -19 75 -52 75 -14 0 -22 -10 -27 -32z"/>
<path d="M2818 1466 c-18 -13 -26 -76 -10 -76 7 0 32 -48 32 -63 0 -5 -11 -23
-25 -39 -27 -32 -27 -45 0 -35 16 7 55 65 55 84 0 6 -6 18 -12 25 -7 7 -20 26
-28 42 -14 26 -13 29 8 46 12 10 22 21 22 24 0 10 -24 6 -42 -8z"/>
<path d="M2070 1320 c0 -11 7 -20 15 -20 8 0 15 6 15 14 0 8 -7 16 -15 20 -10
4 -15 -1 -15 -14z"/>
<path d="M540 713 c-58 -18 -78 -43 -37 -43 21 0 25 -7 36 -67 17 -91 13 -127
-16 -131 -13 -2 -23 -10 -23 -18 0 -10 13 -14 45 -14 33 0 45 4 45 15 0 8 -4
15 -9 15 -5 0 -12 37 -14 83 -2 45 -8 93 -11 107 -7 22 -3 28 26 42 l33 17
-30 0 c-16 -1 -37 -3 -45 -6z"/>
<path d="M419 618 c7 -36 31 -51 31 -20 0 30 -11 52 -25 52 -9 0 -11 -9 -6
-32z"/>
<path d="M2291 637 c-13 -13 -15 -59 -3 -72 14 -17 33 -85 27 -95 -3 -5 -12
-7 -20 -3 -9 3 -15 -1 -15 -11 0 -22 33 -20 55 4 18 20 18 22 -2 63 -12 23
-23 53 -25 67 -4 35 23 33 40 -4 13 -26 16 -27 30 -12 14 14 13 18 -13 40 -34
30 -60 37 -74 23z"/>
<path d="M375 631 c-3 -5 -1 -12 5 -16 5 -3 10 1 10 9 0 18 -6 21 -15 7z"/>
<path d="M915 630 c-11 -5 -39 -9 -62 -9 -45 -1 -57 -9 -44 -30 6 -9 11 -10
15 -2 4 6 16 11 27 11 19 0 19 -5 13 -75 -6 -68 -5 -75 10 -69 9 3 23 1 31 -6
13 -11 18 -10 30 6 8 10 15 22 15 27 0 4 11 7 24 7 13 0 26 6 29 13 2 6 12 -5
22 -26 24 -52 42 -35 26 27 -6 25 -11 63 -11 85 0 30 -4 41 -15 41 -23 0 -29
-26 -15 -61 11 -26 10 -31 -6 -44 -33 -25 -54 -19 -54 15 0 38 -15 39 -23 3
-8 -35 -24 -60 -32 -51 -4 4 -4 29 0 57 6 42 11 52 35 63 16 7 26 16 24 20 -6
10 -13 9 -39 -2z"/>
<path d="M1268 568 c3 -29 9 -54 13 -56 14 -5 11 -22 -4 -22 -7 0 -21 12 -32
27 -11 14 -32 39 -46 54 l-26 28 -10 -22 c-6 -13 -7 -31 -2 -44 5 -13 5 -23 0
-23 -12 0 -20 -46 -11 -60 10 -16 17 -4 25 43 4 20 10 37 14 37 3 0 17 -14 30
-30 13 -17 29 -30 36 -30 7 0 15 -6 18 -12 3 -10 9 -8 23 4 16 16 17 22 6 51
-7 18 -12 50 -12 70 0 24 -5 37 -14 37 -10 0 -12 -13 -8 -52z"/>
<path d="M1342 608 c-9 -11 -11 -34 -6 -74 8 -77 10 -85 28 -78 8 3 12 12 9
20 -7 20 26 17 62 -7 44 -27 55 -32 62 -25 9 8 -27 46 -44 46 -7 0 -13 5 -13
10 0 6 -7 10 -15 10 -8 0 -15 6 -15 14 0 9 -8 12 -24 9 -23 -5 -25 -2 -28 43
-3 40 -5 45 -16 32z"/>
<path d="M1438 595 c-27 -36 -21 -54 7 -22 25 28 32 47 18 47 -5 0 -16 -11
-25 -25z"/>
<path d="M1760 595 c0 -15 -7 -33 -15 -42 -17 -16 -29 -10 -66 29 -21 23 -29
23 -29 0 0 -24 31 -52 57 -52 28 0 41 -18 49 -68 4 -23 10 -42 15 -42 12 0 11
187 -1 195 -6 4 -10 -5 -10 -20z"/>
<path d="M2514 606 c-3 -9 -4 -30 0 -46 6 -32 -13 -50 -53 -50 -17 0 -21 6
-21 35 0 23 -5 35 -14 35 -17 0 -26 -22 -26 -60 0 -16 -6 -30 -12 -33 -10 -3
-10 -11 2 -32 20 -37 40 -44 40 -13 0 34 18 48 62 48 33 0 38 -3 38 -24 0 -30
27 -56 35 -34 3 8 1 27 -5 42 -8 21 -7 31 5 42 20 20 35 9 35 -25 0 -25 37
-71 58 -71 5 0 23 13 40 28 25 22 32 37 32 65 0 44 -15 79 -41 95 -17 11 -24
9 -47 -15 -23 -24 -71 -53 -87 -53 -3 0 -5 10 -5 23 0 12 -7 31 -15 41 -13 17
-15 18 -21 2z m184 -38 c19 -19 14 -73 -8 -93 -30 -27 -70 -13 -70 25 0 17 4
30 8 30 5 0 15 11 22 25 15 27 30 31 48 13z"/>
<path d="M3840 578 c-6 -24 -15 -52 -20 -63 -13 -29 -16 -70 -5 -73 6 -1 11
13 13 33 2 19 7 35 12 35 5 0 11 8 13 18 3 11 5 8 6 -9 1 -36 23 -62 44 -53 9
3 17 10 17 15 0 5 7 9 15 9 9 0 15 -9 15 -24 0 -31 28 -56 40 -35 7 11 12 11
22 1 27 -27 138 0 138 33 0 20 21 30 31 14 5 -8 9 -24 9 -36 0 -14 6 -23 16
-23 12 0 14 7 10 28 -21 115 -16 132 35 132 26 0 29 -3 29 -35 0 -19 -3 -35
-7 -35 -8 0 -33 -48 -33 -63 0 -5 30 -7 67 -5 47 2 68 -1 70 -9 3 -9 26 -13
69 -13 45 0 64 4 64 13 0 8 -17 12 -49 13 -47 0 -81 15 -81 35 0 5 25 9 55 9
30 0 55 5 55 10 0 6 -22 10 -49 10 -35 0 -51 4 -55 16 -9 24 2 34 39 34 21 0
35 6 39 16 9 24 -2 30 -24 16 -11 -7 -36 -12 -55 -12 -38 0 -37 1 -35 -77 1
-29 0 -53 -3 -53 -2 0 -18 5 -36 11 -31 11 -39 23 -22 34 5 3 15 21 21 41 11
32 10 37 -11 55 -18 16 -32 19 -59 14 -19 -4 -36 -11 -38 -16 -2 -5 -10 -9
-18 -9 -8 0 -14 -4 -14 -10 0 -16 -19 -12 -41 8 -10 11 -31 25 -45 33 -24 13
-27 11 -60 -26 -19 -22 -34 -44 -34 -48 0 -5 -6 -7 -12 -5 -7 3 -15 21 -18 42
-7 54 -24 49 -33 -11 -7 -43 -12 -53 -28 -53 -16 0 -19 7 -19 44 0 26 -6 48
-14 56 -12 9 -17 4 -26 -32z m268 -7 c54 -52 51 -96 -9 -121 -50 -21 -83 -4
-87 44 -3 30 1 41 18 53 14 10 19 21 15 34 -10 30 27 24 63 -10z"/>
<path d="M3377 590 c-9 -11 -17 -27 -17 -36 0 -8 -5 -25 -11 -37 -9 -16 -9
-22 0 -25 6 -2 11 -19 11 -38 l0 -34 61 0 c38 0 66 5 74 14 15 14 65 10 65 -5
0 -5 27 -9 59 -9 43 0 60 4 65 15 6 17 -12 23 -84 28 l-45 4 48 1 c66 3 59 22
-8 22 -55 0 -55 0 -55 31 0 35 23 58 57 59 12 0 25 5 28 10 4 6 -8 10 -29 10
-20 0 -36 -4 -36 -10 0 -5 -11 -10 -25 -10 -25 0 -29 -7 -25 -47 2 -26 -8 -28
-42 -10 -14 7 -22 19 -20 30 3 16 -31 57 -47 57 -4 0 -14 -9 -24 -20z m43 -23
c0 -14 -20 -37 -32 -37 -4 0 -8 11 -8 25 0 18 5 25 20 25 11 0 20 -6 20 -13z
m25 -67 c3 -5 15 -10 26 -10 10 0 19 -6 19 -13 0 -24 -24 -37 -67 -37 -37 0
-43 3 -43 21 0 34 50 64 65 39z"/>
<path d="M390 580 c0 -11 5 -20 10 -20 6 0 10 9 10 20 0 11 -4 20 -10 20 -5 0
-10 -9 -10 -20z"/>
<path d="M1090 536 c0 -59 2 -66 20 -66 17 0 20 6 19 38 -1 49 -12 85 -27 90
-9 3 -12 -15 -12 -62z"/>
<path d="M1833 580 c-3 -11 -9 -20 -13 -20 -11 0 -21 -71 -14 -97 13 -50 115
-18 113 35 0 14 -2 14 -10 -3 -16 -32 -47 -49 -65 -34 -15 13 -19 70 -5 85 16
16 23 54 11 54 -7 0 -14 -9 -17 -20z"/>
<path d="M1890 587 c0 -8 9 -25 21 -38 l20 -24 -7 25 c-9 31 -34 59 -34 37z"/>
<path d="M2066 578 c-14 -67 -14 -108 0 -108 8 0 14 -7 14 -15 0 -8 6 -15 13
-15 17 0 10 129 -9 147 -11 12 -14 10 -18 -9z"/>
<path d="M2870 557 c0 -51 -22 -87 -55 -87 -22 0 -24 5 -27 52 -2 42 -7 54
-22 56 -17 4 -18 -1 -14 -51 2 -31 10 -63 17 -71 17 -20 65 -21 81 -1 18 21
29 19 40 -10 5 -14 16 -25 25 -25 17 0 21 25 5 35 -5 3 -10 26 -10 50 0 45
-17 95 -32 95 -4 0 -8 -19 -8 -43z"/>
<path d="M3051 586 c-10 -11 -9 -21 3 -45 9 -16 16 -43 16 -59 0 -36 26 -63
36 -38 3 9 2 22 -4 29 -5 6 -12 33 -14 60 -5 45 -5 47 21 47 43 0 91 -35 91
-67 0 -16 -6 -35 -13 -43 -23 -29 -84 -70 -104 -70 -12 0 -23 -7 -27 -15 -7
-20 17 -19 62 2 48 23 80 51 99 87 24 47 -3 105 -49 106 -10 0 -18 5 -18 10 0
16 -86 12 -99 -4z"/>
<path d="M1956 564 c-10 -27 -6 -78 8 -96 15 -20 43 -23 66 -8 12 8 9 10 -12
10 -32 0 -43 25 -33 76 4 26 2 34 -8 34 -8 0 -18 -7 -21 -16z"/>
<path d="M2950 568 c-7 -42 -5 -110 4 -115 5 -4 30 -8 53 -9 32 -2 43 1 43 12
0 9 -11 14 -35 14 l-35 0 0 50 c0 38 -4 50 -15 50 -8 0 -15 -1 -15 -2z"/>
<path d="M1694 321 c7 -44 5 -46 -41 -56 -30 -6 -33 -4 -33 17 0 13 -5 30 -10
38 -23 36 -32 -41 -14 -127 2 -13 12 -23 20 -23 12 0 15 6 11 21 -8 31 2 49
28 49 13 0 27 5 30 10 10 16 35 -15 35 -43 0 -33 27 -56 36 -32 4 9 2 20 -3
24 -10 6 -15 28 -29 124 -4 24 -11 37 -21 37 -12 0 -14 -8 -9 -39z"/>
<path d="M4370 350 c0 -6 4 -18 10 -28 5 -9 16 -34 24 -54 17 -42 36 -50 36
-15 0 34 -38 107 -55 107 -8 0 -15 -5 -15 -10z"/>
<path d="M740 340 c-8 -5 -28 -10 -45 -10 -21 0 -40 -11 -63 -35 -35 -35 -34
-35 -76 2 -23 21 -28 -11 -5 -35 25 -28 24 -51 -5 -84 -20 -24 -31 -28 -80
-28 -54 0 -56 1 -56 26 0 25 2 26 47 22 31 -2 48 1 50 10 3 8 -10 12 -45 12
-51 0 -62 9 -62 49 0 17 49 41 82 41 9 0 18 6 21 14 5 12 -5 13 -51 9 -31 -3
-63 -10 -69 -16 -16 -12 -17 -137 -2 -170 10 -22 16 -24 54 -19 29 3 50 -1 65
-11 27 -19 50 -12 50 14 0 10 3 19 8 19 4 0 12 10 17 23 13 29 27 26 45 -10
11 -22 18 -27 26 -20 7 8 5 22 -8 49 -22 44 -22 57 -3 82 21 28 35 11 60 -72
13 -43 26 -67 35 -67 8 0 13 7 11 15 -13 50 -13 70 2 70 19 0 77 68 77 90 0
35 -46 52 -80 30z m44 -25 c7 -18 -12 -52 -33 -60 -16 -6 -51 22 -51 42 0 7
11 13 25 13 14 0 25 5 25 10 0 16 27 12 34 -5z"/>
<path d="M1107 319 c-53 -58 -57 -115 -11 -145 26 -18 75 -11 109 13 18 14 15
15 -33 9 -64 -8 -82 3 -82 48 1 39 22 68 52 70 13 1 24 8 26 19 6 28 -30 20
-61 -14z"/>
<path d="M1390 340 c-8 -5 -34 -10 -56 -10 -43 0 -80 -25 -53 -35 8 -2 23 -3
34 -2 17 2 21 -7 30 -77 6 -47 15 -81 23 -84 14 -4 15 -1 12 100 l-2 77 29 3
c17 2 28 9 28 18 0 18 -25 24 -45 10z"/>
<path d="M2570 338 c0 -7 9 -37 20 -66 11 -29 18 -57 15 -62 -3 -5 -27 11 -52
35 -26 25 -53 45 -60 45 -7 0 -13 5 -13 10 0 6 -4 10 -10 10 -16 0 -12 -129 4
-146 19 -19 25 -1 16 48 -9 49 3 49 58 -2 55 -50 92 -54 92 -11 0 17 -4 33
-10 36 -5 3 -10 14 -10 23 0 37 -22 92 -35 92 -8 0 -15 -6 -15 -12z"/>
<path d="M4324 299 c7 -55 31 -93 41 -66 3 7 1 26 -5 41 -5 15 -10 38 -10 52
0 15 -6 24 -16 24 -14 0 -16 -8 -10 -51z"/>
<path d="M1000 268 c1 -61 15 -98 38 -98 12 0 6 51 -9 82 -5 9 -9 30 -9 47 0
17 -4 31 -10 31 -6 0 -10 -27 -10 -62z"/>
<path d="M1223 253 c4 -57 10 -81 23 -90 23 -17 36 1 24 31 -5 12 -14 47 -20
79 -17 86 -34 73 -27 -20z"/>
<path d="M1746 321 c-3 -5 1 -22 9 -37 8 -16 15 -43 15 -61 0 -50 23 -65 87
-57 39 4 62 2 80 -7 21 -11 27 -11 30 -1 5 14 73 17 73 2 0 -5 9 -10 20 -10
11 0 20 4 20 8 0 15 -24 32 -47 32 -14 0 -23 6 -23 15 0 8 5 15 10 15 6 0 10
5 10 10 0 6 10 24 21 40 33 44 20 60 -47 60 -74 0 -96 -21 -83 -81 5 -22 7
-44 4 -50 -4 -5 -31 -9 -61 -9 -41 0 -54 4 -54 15 0 10 11 15 35 15 19 0 35 5
35 10 0 6 -18 10 -40 10 -33 0 -40 3 -40 19 0 11 -3 26 -6 35 -5 13 1 16 30
16 20 0 36 5 36 10 0 12 -107 13 -114 1z m294 -17 c0 -11 -34 -64 -41 -64 -4
0 -9 -9 -12 -20 -9 -35 -24 -21 -30 27 -3 27 -3 51 0 55 5 9 83 11 83 2z"/>
<path d="M2135 320 c-3 -5 -17 -10 -31 -10 -28 0 -30 -14 -12 -102 12 -56 28
-75 63 -71 76 9 105 16 105 27 0 9 -15 11 -55 8 -63 -5 -95 10 -70 34 7 8 33
14 59 14 27 0 46 5 46 11 0 7 -21 10 -60 7 -59 -3 -60 -2 -60 23 0 34 17 49
57 49 18 0 33 5 33 10 0 6 -15 10 -34 10 -19 0 -38 -4 -41 -10z"/>
<path d="M2798 308 c-20 -11 -34 -26 -32 -32 6 -15 62 -36 94 -36 24 0 63 -36
57 -54 -6 -19 -89 -20 -99 -2 -11 20 -38 21 -38 1 0 -22 33 -35 93 -35 59 0
83 16 73 48 -10 31 -42 62 -64 62 -11 0 -33 6 -50 13 -24 10 -27 14 -16 25 7
6 31 12 54 12 22 0 40 5 40 10 0 17 -73 9 -112 -12z"/>
<path d="M3055 320 c-3 -5 -29 -10 -56 -10 -36 0 -49 -4 -46 -12 2 -8 17 -12
34 -10 30 3 30 2 37 -52 9 -77 14 -88 37 -75 15 8 17 14 9 28 -5 10 -11 38
-12 62 -3 38 0 44 17 44 11 0 21 8 23 18 4 19 -32 25 -43 7z"/>
<path d="M3200 321 c0 -6 -17 -11 -37 -13 l-38 -3 -3 -54 c-5 -83 1 -95 53
-109 55 -15 90 -15 116 -2 37 20 19 30 -56 30 -60 0 -75 3 -75 15 0 11 11 15
39 15 22 0 43 5 46 10 4 6 -13 10 -44 10 l-51 0 0 35 c0 34 1 35 39 35 37 0
68 19 54 33 -10 10 -43 8 -43 -2z"/>
<path d="M3308 316 c-19 -14 -24 -41 -9 -50 5 -4 12 -30 16 -59 7 -48 17 -66
38 -67 5 0 7 17 5 38 -3 32 0 37 20 40 12 2 22 8 22 13 0 5 8 9 18 9 16 0 62
33 62 45 0 2 -10 13 -22 25 -26 24 -122 28 -150 6z m126 -18 c11 -10 11 -15 0
-25 -7 -7 -19 -13 -28 -13 -8 0 -18 -4 -21 -10 -3 -5 -15 -10 -26 -10 -15 0
-19 7 -19 35 0 34 1 35 40 35 23 0 47 -5 54 -12z"/>
<path d="M3740 320 c0 -5 -24 -10 -54 -10 -40 0 -55 -4 -60 -16 -5 -13 -1 -15
20 -10 42 11 54 -8 54 -85 0 -64 2 -69 21 -69 20 0 21 3 15 51 -4 29 -10 64
-13 79 -4 24 -1 29 28 39 17 6 49 11 70 11 22 0 39 5 39 10 0 6 -27 10 -60 10
-33 0 -60 -4 -60 -10z"/>
<path d="M3927 323 c-11 -10 -8 -48 4 -60 14 -14 8 -65 -9 -71 -7 -2 -21 15
-33 43 -21 46 -41 55 -47 19 -7 -46 -13 -64 -22 -64 -6 0 -10 11 -10 25 0 31
-20 76 -31 69 -14 -8 -10 -58 6 -98 18 -42 44 -46 60 -8 13 29 21 28 50 -5 19
-23 27 -26 41 -17 25 15 35 60 28 122 -6 48 -19 64 -37 45z"/>
<path d="M840 245 l0 -75 65 0 c52 0 65 3 65 16 0 12 -10 15 -45 13 -54 -4
-60 2 -61 52 -2 63 -3 69 -14 69 -6 0 -10 -32 -10 -75z"/>
<path d="M2407 303 c-2 -4 -4 -41 -4 -80 0 -64 2 -73 18 -73 17 0 19 8 19 69
0 47 -4 72 -14 80 -8 7 -16 8 -19 4z"/>
<path d="M4053 296 c-66 -37 -83 -96 -42 -146 17 -20 30 -24 73 -24 42 0 58 5
79 24 34 32 45 81 23 103 -9 8 -16 19 -16 24 0 12 -50 33 -74 32 -12 -1 -31
-7 -43 -13z m85 -26 c40 -25 44 -66 8 -99 -34 -32 -104 -27 -125 10 -21 38 -8
76 29 84 16 4 32 11 35 16 9 13 16 11 53 -11z"/>
<path d="M4222 178 c-17 -17 -15 -48 3 -48 10 0 15 10 15 30 0 34 -1 35 -18
18z"/>
</g>
</svg>
